# xmcd CD database file generated by Grip 3.2.0
# 
# Track frame offsets:
#       150
#       16930
#       21987
#       35895
#       48845
#       64670
#       83000
#       93262
#       130872
#       147315
#       162607
#       189240
# 
# Disc length: 2599 seconds
# 
# Revision: 2
# Processed by: cddbd v1.5.2PL0 Copyright (c) Steve Scherf et al.
# Submitted via: Grip 3.2.0
# 
DISCID=9b0a250c
DTITLE=Queen - A Night at the Opera
DYEAR=1975
DGENRE=Rock
TTITLE0=Death on Two Legs (Dedicated to...)
TTITLE1=Lazing on a Sunday Afternoon
TTITLE2=I'm in Love With My Car
TTITLE3=You're My Best Friend
TTITLE4='39
TTITLE5=Sweet Lady
TTITLE6=Seaside Rendezvous
TTITLE7=The Prophet's Song
TTITLE8=Love of My Life
TTITLE9=Good Company
TTITLE10=Bohemian Rhapsody
TTITLE11=God Save the Queen
EXTD=
EXTT0=
EXTT1=
EXTT2=
EXTT3=
EXTT4=
EXTT5=
EXTT6=
EXTT7=
EXTT8=
EXTT9=
EXTT10=
EXTT11=
PLAYORDER=
